# xmcd
#
# Track frame offsets:
#	150
#	14340
#	24082
#	43997
#	56185
#	65747
#	76940
#	92830
#	104167
#	119880
#	143410
#	166875
#	183275
#	197852
#	214685
#	234905
#	245557
#
# Disc length: 3626 seconds
#
# Revision: 0
# Processed by: cddbd v1.4PL0 Copyright (c) Steve Scherf et al.
# Submitted via: EasyCDDAExtractor 4.6.0.1
#
DISCID=f20e2811
DTITLE=Glen Campbell - Rhinestone Cowboy
DYEAR=1997
DGENRE=Country
TTITLE0=Rhinestone Cowboy
TTITLE1=Gentle On My Mind
TTITLE2=Medley: Wichita Lineman, Galveston, Country Boy (you got your feet in 
TTITLE2=LA)
TTITLE3=By The Time I Get To Phoenix
TTITLE4=Dreams Of The Everyday Housewife
TTITLE5=Heartache Number Three
TTITLE6=Please Come To Boston
TTITLE7=It's Only Make Believe
TTITLE8=Crying
TTITLE9=Blue Grass Medley: Foggy Mountain Breakdown, Orange Blossom Special
TTITLE10=Milk Cow Blues
TTITLE11=Rollin'  (in my sweet baby's arms)
TTITLE12=I'm So Lonesome I Could Cry
TTITLE13=Southern Nights
TTITLE14=Amazing Grace
TTITLE15=Try A Little Kindness
TTITLE16=Mull Of Kintyre
EXTD=
EXTT0=
EXTT1=
EXTT2=
EXTT3=
EXTT4=
EXTT5=
EXTT6=
EXTT7=
EXTT8=
EXTT9=
EXTT10=
EXTT11=
EXTT12=
EXTT13=
EXTT14=
EXTT15=
EXTT16=
PLAYORDER=
